<svg width="56" height="64" viewBox="0 0 56 64" fill="none" xmlns="http://www.w3.org/2000/svg">
<path d="M50 60H6C2.68625 60 0 57.3138 0 54V10C0 6.68625 2.68625 4 6 4H50C53.3138 4 56 6.68625 56 10V54C56 57.3138 53.3138 60 50 60ZM24.4142 47.7426L47.4142 24.7426C48.1952 23.9616 48.1952 22.6952 47.4142 21.9142L44.5859 19.0859C43.8049 18.3049 42.5385 18.3047 41.7574 19.0859L23 37.8431L14.2426 29.0858C13.4616 28.3048 12.1953 28.3048 11.4141 29.0858L8.58575 31.9141C7.80475 32.6951 7.80475 33.9615 8.58575 34.7425L21.5858 47.7425C22.3669 48.5238 23.6331 48.5238 24.4142 47.7426Z" fill="#1DCC00"/>
</svg>
