<svg width="316" height="316" viewBox="0 0 316 316" fill="none" xmlns="http://www.w3.org/2000/svg">
<path d="M315.906 158C315.906 245.209 245.209 315.906 158 315.906C70.7905 315.906 0.09375 245.209 0.09375 158C0.09375 70.7905 70.7905 0.09375 158 0.09375C245.209 0.09375 315.906 70.7905 315.906 158ZM139.735 241.61L256.891 124.454C260.87 120.476 260.87 114.025 256.891 110.047L242.484 95.6398C238.506 91.6609 232.055 91.6609 228.077 95.6398L132.531 191.185L87.9234 146.577C83.9452 142.598 77.4946 142.598 73.5157 146.577L59.1087 160.984C55.1304 164.962 55.1304 171.412 59.1087 175.391L125.327 241.609C129.306 245.588 135.756 245.588 139.735 241.61Z" fill="#3D9635"/>
</svg>
