<svg width="200" height="178" viewBox="0 0 200 178" fill="none" xmlns="http://www.w3.org/2000/svg">
<path d="M183.299 11H16.7014C7.46528 11 0 18.4746 0 27.6875V150.062C0 159.275 7.46528 166.75 16.7014 166.75H183.299C192.535 166.75 200 159.275 200 150.062V27.6875C200 18.4746 192.535 11 183.299 11ZM18.7847 27.6875H181.215C182.361 27.6875 183.299 28.6262 183.299 29.7734V44.375H16.7014V29.7734C16.7014 28.6262 17.6389 27.6875 18.7847 27.6875ZM181.215 150.062H18.7847C17.6389 150.062 16.7014 149.124 16.7014 147.977V88.875H183.299V147.977C183.299 149.124 182.361 150.062 181.215 150.062ZM66.6667 115.297V129.203C66.6667 131.498 64.7917 133.375 62.5 133.375H37.5C35.2083 133.375 33.3333 131.498 33.3333 129.203V115.297C33.3333 113.002 35.2083 111.125 37.5 111.125H62.5C64.7917 111.125 66.6667 113.002 66.6667 115.297ZM133.333 115.297V129.203C133.333 131.498 131.458 133.375 129.167 133.375H81.9444C79.6528 133.375 77.7778 131.498 77.7778 129.203V115.297C77.7778 113.002 79.6528 111.125 81.9444 111.125H129.167C131.458 111.125 133.333 113.002 133.333 115.297Z" fill="black"/>
</svg>
