<svg width="152" height="152" viewBox="0 0 152 152" fill="none" xmlns="http://www.w3.org/2000/svg">
<g clip-path="url(#clip0)">
<path d="M20.5734 149.922L50.1719 120.323C51.5078 118.988 52.25 117.177 52.25 115.277V110.438C62.7297 118.631 75.9109 123.5 90.25 123.5C124.361 123.5 152 95.8609 152 61.75C152 27.6391 124.361 0 90.25 0C56.1391 0 28.5 27.6391 28.5 61.75C28.5 76.0891 33.3688 89.2703 41.5625 99.75H36.7234C34.8234 99.75 33.0125 100.492 31.6766 101.828L2.07813 131.427C-0.712494 134.217 -0.712494 138.73 2.07813 141.491L10.4797 149.892C13.2703 152.683 17.7828 152.683 20.5734 149.922ZM52.25 61.75C52.25 40.7609 69.2312 23.75 90.25 23.75C111.239 23.75 128.25 40.7313 128.25 61.75C128.25 82.7391 111.269 99.75 90.25 99.75C69.2609 99.75 52.25 82.7688 52.25 61.75Z" fill="black"/>
</g>
<defs>
<clipPath id="clip0">
<rect width="152" height="152" fill="white" transform="translate(152) rotate(90)"/>
</clipPath>
</defs>
</svg>
