<svg width="125" height="127" viewBox="0 0 125 127" fill="none" xmlns="http://www.w3.org/2000/svg">
<path d="M0 54.5625H53.5714V0.9375H0V54.5625ZM17.8571 18.8125H35.7143V36.6875H17.8571V18.8125ZM71.4286 0.9375V54.5625H125V0.9375H71.4286ZM107.143 36.6875H89.2857V18.8125H107.143V36.6875ZM0 126.062H53.5714V72.4375H0V126.062ZM17.8571 90.3125H35.7143V108.188H17.8571V90.3125ZM116.071 72.4375H125V108.188H98.2143V99.25H89.2857V126.062H71.4286V72.4375H98.2143V81.375H116.071V72.4375ZM116.071 117.125H125V126.062H116.071V117.125ZM98.2143 117.125H107.143V126.062H98.2143V117.125Z" fill="black"/>
</svg>
