<svg width="99" height="101" viewBox="0 0 99 101" fill="none" xmlns="http://www.w3.org/2000/svg">
<path d="M88.3609 48.2709C82.9641 52.7488 76.3812 55.5895 69.4547 56.4969C64.0578 66.7744 57.75 71.0156 57.75 71.0156L88.3609 48.2709ZM88.3609 48.2709C95.1156 42.6883 99 35.4486 99 28.4062V17.3594C99 14.7357 97.1609 12.625 94.875 12.625H78.5L88.3609 48.2709ZM75.5 12.625V14.125H77H94.875C96.1451 14.125 97.5 15.3634 97.5 17.3594V28.4062C97.5 34.8931 93.9084 41.74 87.4053 47.1147L87.4031 47.1165C82.227 51.4113 75.9095 54.1384 69.2598 55.0096L68.4884 55.1106L68.1267 55.7995C65.5011 60.7995 62.662 64.3161 60.4965 66.5714C59.4136 67.6993 58.4992 68.5116 57.8646 69.0359C57.5473 69.2981 57.3 69.4881 57.1367 69.6095C57.0551 69.6702 56.9945 69.7137 56.9566 69.7404C56.9497 69.7453 56.9435 69.7496 56.9381 69.7534C56.9288 69.76 56.9217 69.7648 56.9171 69.768L56.913 69.7708L56.9122 69.7714L56.9116 69.7718L56.9107 69.7724L56.9105 69.7725L56.25 70.2166V71.0156V85.2188V86.7188H57.75H66C68.6983 86.7188 71.0631 87.624 72.7423 89.2186C74.409 90.8013 75.5 93.1568 75.5 96.2656V98.6328C75.5 98.9298 75.3937 99.1695 75.2632 99.3193C75.1347 99.4668 75.0142 99.5 74.9375 99.5H24.0625C23.9858 99.5 23.8653 99.4668 23.7368 99.3193C23.6063 99.1695 23.5 98.9298 23.5 98.6328V96.2656C23.5 93.1568 24.591 90.8013 26.2577 89.2186C27.9369 87.624 30.3017 86.7188 33 86.7188H41.25H42.75V85.2188V71.0156V70.2166L42.0895 69.7725L42.0893 69.7724L42.0884 69.7718L42.0878 69.7714L42.087 69.7708L42.0829 69.768C42.0795 69.7657 42.0748 69.7624 42.0688 69.7583C42.062 69.7535 42.0535 69.7476 42.0434 69.7404C42.0055 69.7137 41.9449 69.6702 41.8633 69.6095C41.7 69.4881 41.4527 69.2981 41.1354 69.0359C40.5008 68.5116 39.5864 67.6993 38.5035 66.5714C36.338 64.3161 33.4989 60.7995 30.8733 55.7995L30.5118 55.1109L29.7406 55.0096C23.1084 54.1386 16.7899 51.4116 11.5951 47.115L11.5932 47.1135C5.07581 41.7407 1.5 34.8946 1.5 28.4062V17.3594C1.5 15.3634 2.85491 14.125 4.125 14.125H22H23.5V12.625V4.73438C23.5 2.73841 24.8549 1.5 26.125 1.5H72.875C74.1451 1.5 75.5 2.73841 75.5 4.73438V12.625ZM16.1106 39.1882L16.1117 39.1891C18.3842 41.067 20.9446 42.567 23.683 43.6493L26.3786 44.7147L25.6916 41.8988C24.5138 37.0709 23.7029 31.5349 23.5338 25.2099L23.4948 23.75H22.0344H11H9.5V25.25V28.4062C9.5 29.9115 10.0969 31.7161 11.1682 33.5365C12.2558 35.3845 13.8902 37.35 16.1106 39.1882ZM82.8883 39.1891L82.8896 39.1881C84.4987 37.8554 86.1174 36.1379 87.3463 34.307C88.5527 32.5095 89.5 30.4294 89.5 28.4062V25.25V23.75H88H76.9484H75.488L75.449 25.2099C75.2799 31.5349 74.469 37.0709 73.2912 41.8988L72.6042 44.7147L75.2998 43.6493C78.0352 42.5681 80.6134 41.069 82.8883 39.1891Z" fill="#E7EB2A" stroke="black" stroke-width="3"/>
</svg>
