<svg width="217" height="154" viewBox="0 0 217 154" fill="none" xmlns="http://www.w3.org/2000/svg">
<path d="M32.55 66.125C44.5189 66.125 54.25 56.3715 54.25 44.375C54.25 32.3785 44.5189 22.625 32.55 22.625C20.5811 22.625 10.85 32.3785 10.85 44.375C10.85 56.3715 20.5811 66.125 32.55 66.125ZM184.45 66.125C196.419 66.125 206.15 56.3715 206.15 44.375C206.15 32.3785 196.419 22.625 184.45 22.625C172.481 22.625 162.75 32.3785 162.75 44.375C162.75 56.3715 172.481 66.125 184.45 66.125ZM195.3 77H173.6C167.633 77 162.241 79.4129 158.308 83.3211C171.973 90.8316 181.67 104.391 183.772 120.5H206.15C212.151 120.5 217 115.64 217 109.625V98.75C217 86.7535 207.269 77 195.3 77ZM108.5 77C129.488 77 146.475 59.9738 146.475 38.9375C146.475 17.9012 129.488 0.875 108.5 0.875C87.512 0.875 70.525 17.9012 70.525 38.9375C70.525 59.9738 87.512 77 108.5 77ZM134.54 87.875H131.726C124.673 91.2734 116.841 93.3125 108.5 93.3125C100.159 93.3125 92.3606 91.2734 85.2742 87.875H82.46C60.8956 87.875 43.4 105.411 43.4 127.025V136.812C43.4 145.818 50.6898 153.125 59.675 153.125H157.325C166.31 153.125 173.6 145.818 173.6 136.812V127.025C173.6 105.411 156.104 87.875 134.54 87.875ZM58.6917 83.3211C54.7586 79.4129 49.3675 77 43.4 77H21.7C9.73109 77 0 86.7535 0 98.75V109.625C0 115.64 4.84859 120.5 10.85 120.5H33.1942C35.3303 104.391 45.0275 90.8316 58.6917 83.3211Z" fill="black"/>
</svg>
