<svg width="64" height="73" viewBox="0 0 64 73" fill="none" xmlns="http://www.w3.org/2000/svg">
<path d="M32 36.5C42.1 36.5 50.2857 28.3303 50.2857 18.25C50.2857 8.16973 42.1 0 32 0C21.9 0 13.7143 8.16973 13.7143 18.25C13.7143 28.3303 21.9 36.5 32 36.5ZM44.8 41.0625H42.4143C39.2429 42.5168 35.7143 43.3438 32 43.3438C28.2857 43.3438 24.7714 42.5168 21.5857 41.0625H19.2C8.6 41.0625 0 49.6457 0 60.225V66.1562C0 69.9346 3.07143 73 6.85714 73H57.1429C60.9286 73 64 69.9346 64 66.1562V60.225C64 49.6457 55.4 41.0625 44.8 41.0625Z" fill="white"/>
</svg>
