<svg width="209" height="167" viewBox="0 0 209 167" fill="none" xmlns="http://www.w3.org/2000/svg">
<path d="M62.7 83.5C82.9142 83.5 99.275 67.1588 99.275 46.9688C99.275 26.7787 82.9142 10.4375 62.7 10.4375C42.4858 10.4375 26.125 26.7787 26.125 46.9688C26.125 67.1588 42.4858 83.5 62.7 83.5ZM87.78 93.9375H85.0695C78.277 97.1992 70.7334 99.1562 62.7 99.1562C54.6666 99.1562 47.1556 97.1992 40.3305 93.9375H37.62C16.8506 93.9375 0 110.768 0 131.513V140.906C0 149.55 7.02109 156.562 15.675 156.562H109.725C118.379 156.562 125.4 149.55 125.4 140.906V131.513C125.4 110.768 108.549 93.9375 87.78 93.9375ZM156.75 83.5C174.058 83.5 188.1 69.4746 188.1 52.1875C188.1 34.9004 174.058 20.875 156.75 20.875C139.442 20.875 125.4 34.9004 125.4 52.1875C125.4 69.4746 139.442 83.5 156.75 83.5ZM172.425 93.9375H171.184C166.645 95.5031 161.844 96.5469 156.75 96.5469C151.656 96.5469 146.855 95.5031 142.316 93.9375H141.075C134.413 93.9375 128.274 95.8619 122.885 98.9605C130.854 107.539 135.85 118.922 135.85 131.513V144.038C135.85 144.755 135.687 145.44 135.654 146.125H193.325C201.979 146.125 209 139.112 209 130.469C209 110.279 192.639 93.9375 172.425 93.9375Z" fill="black"/>
</svg>
