<svg width="51" height="51" viewBox="0 0 51 51" fill="none" xmlns="http://www.w3.org/2000/svg">
<path d="M25.0095 12.1887C17.9152 12.191 12.1948 17.9164 12.1971 25.0122C12.1993 32.1081 17.9234 37.8297 25.0177 37.8275C32.1119 37.8252 37.8324 32.0998 37.8301 25.004C37.8278 17.9082 32.1037 12.1865 25.0095 12.1887ZM25.0162 33.3424C20.4318 33.3438 16.6826 29.6075 16.6812 25.0108C16.6797 20.4141 20.4153 16.6753 25.0109 16.6738C29.6066 16.6724 33.3445 20.4088 33.346 25.0054C33.3475 29.6021 29.6007 33.3409 25.0162 33.3424ZM41.3395 11.6591C41.34 13.3215 40.0019 14.6496 38.351 14.6502C36.689 14.6507 35.3612 13.3123 35.3607 11.6611C35.3601 10.0098 36.6983 8.67055 38.3491 8.67002C40 8.6695 41.339 10.0079 41.3395 11.6591ZM49.829 14.6911C49.6381 10.6858 48.7223 7.1382 45.7877 4.21601C42.8643 1.29382 39.3169 0.380079 35.3124 0.180535C31.1851 -0.052441 18.8148 -0.0484821 14.6877 0.187135C10.6945 0.378082 7.14765 1.29409 4.21495 4.21816C1.28226 7.14222 0.37988 10.6904 0.180381 14.6959C-0.052542 18.824 -0.0485823 31.1971 0.186983 35.3251C0.377891 39.3304 1.2937 42.878 4.22826 45.8002C7.16283 48.7224 10.6991 49.6361 14.7036 49.8357C18.8309 50.0687 31.2012 50.0647 35.3283 49.8291C39.3327 49.6381 42.8795 48.7221 45.801 45.7869C48.7226 42.8628 49.6361 39.3146 49.8356 35.3092C50.0685 31.1811 50.0646 18.8191 49.829 14.6911ZM44.5052 39.7402C43.6358 41.9273 41.952 43.6125 39.7549 44.4946C36.4647 45.8011 28.6565 45.5023 25.0201 45.5035C21.3838 45.5046 13.5646 45.7972 10.2847 44.5041C8.09818 43.6345 6.41331 41.9504 5.5314 39.7527C4.22527 36.4618 4.52394 28.6518 4.52278 25.0147C4.52162 21.3775 4.2291 13.5565 5.52197 10.276C6.39132 8.08893 8.07511 6.40369 10.2723 5.52158C13.5624 4.21516 21.3707 4.5139 25.007 4.51274C28.6434 4.51158 36.4626 4.21899 39.7424 5.51215C41.929 6.3817 43.6138 8.06586 44.4958 10.2635C45.8019 13.5544 45.5032 21.3644 45.5044 25.0016C45.5055 28.6387 45.8092 36.4597 44.5052 39.7402Z" fill="black"/>
</svg>
