<svg width="51" height="51" viewBox="0 0 51 51" fill="none" xmlns="http://www.w3.org/2000/svg">
<path d="M48.5854 35.3323L37.6462 30.6483C37.1789 30.4493 36.6596 30.4075 36.1665 30.5292C35.6733 30.6509 35.2331 30.9294 34.912 31.323L30.0701 37.2426C22.467 33.6608 16.3472 27.5449 12.7605 19.9441L18.677 15.0984C19.0711 14.7776 19.35 14.3372 19.4715 13.8438C19.5929 13.3503 19.5502 12.8308 19.35 12.3637L14.6589 1.42755C14.4391 0.924108 14.0506 0.513128 13.5602 0.265481C13.0699 0.0178341 12.5085 -0.0509578 11.9729 0.0709675L1.81721 2.41801C1.3008 2.53743 0.840119 2.82837 0.510353 3.24333C0.180588 3.65829 0.00121128 4.17277 0.00149993 4.70281C0.0095164 29.7521 20.3191 50.0096 45.3293 50.0016C45.8595 50.0018 46.3741 49.8222 46.789 49.4921C47.204 49.1621 47.4948 48.7011 47.6139 48.1844L49.9544 38.0273C50.0752 37.4889 50.0046 36.9254 49.7547 36.4335C49.5049 35.9416 49.0914 35.5522 48.5854 35.3323Z" fill="black"/>
</svg>
