<svg width="51" height="51" viewBox="0 0 51 51" fill="none" xmlns="http://www.w3.org/2000/svg">
<path d="M50.008 25.1522C50.0036 11.2577 38.8105 0.00369284 25 0.00811258C11.1895 0.0125323 0.00360275 11.2737 0.00804938 25.1682C0.0120669 37.722 9.15753 48.1247 21.1098 50.0094L21.1041 32.4323L14.7533 32.4343L14.751 25.1635L21.1018 25.1615L21.1 19.6199C21.098 13.3167 24.8267 9.83373 30.5394 9.8319C33.2753 9.83102 36.1364 10.321 36.1364 10.321L36.1383 16.5076L32.9851 16.5086C29.8803 16.5096 28.9122 18.4491 28.9128 20.4379L28.9143 25.159L35.8478 25.1568L34.7412 32.4279L28.9166 32.4298L28.9222 50.0069C40.8733 48.1146 50.0121 37.706 50.008 25.1522Z" fill="black"/>
</svg>
