<svg width="44" height="44" viewBox="0 0 44 44" fill="none" xmlns="http://www.w3.org/2000/svg">
<g clip-path="url(#clip0)">
<path d="M10.9702 15.5472L10.8145 13.5414C10.7485 12.6922 11.3819 11.9522 12.227 11.8912L29.7861 10.5236C30.6354 10.4577 31.3753 11.091 31.4364 11.9361L32.7991 29.491C32.865 30.3403 32.2316 31.0803 31.3865 31.1413L29.3808 31.297C28.5225 31.3636 27.7762 30.708 27.7277 29.8483L27.1607 19.2078L15.1854 33.1988C14.6312 33.8463 13.6644 33.9213 13.017 33.3671L11.4592 32.0337C10.8117 31.4796 10.7367 30.5128 11.2908 29.8654L23.2662 15.8743L12.6566 16.9569C11.7955 17.0465 11.0326 16.4104 10.9702 15.5472Z" fill="black" fill-opacity="0.37"/>
</g>
<defs>
<clipPath id="clip0">
<rect width="28.7073" height="32.8084" fill="white" transform="translate(21.334) rotate(40.5613)"/>
</clipPath>
</defs>
</svg>
