<svg width="55" height="62" viewBox="0 0 55 62" fill="none" xmlns="http://www.w3.org/2000/svg">
<path d="M49.1071 27.125C47.4799 27.125 46.1607 25.8058 46.1607 24.1786V18.4062C46.1607 8.25859 37.7879 0 27.5 0C17.2121 0 8.83929 8.25859 8.83929 18.4062V24.1786C8.83929 25.8058 7.52012 27.125 5.89286 27.125C2.63951 27.125 0 29.7285 0 32.9375V56.1875C0 59.3965 2.63951 62 5.89286 62H49.1071C52.3605 62 55 59.3965 55 56.1875V32.9375C55 29.7285 52.3605 27.125 49.1071 27.125ZM36.3393 18.4062C36.3393 23.2215 32.4358 27.125 27.6205 27.125H27.3795C22.5642 27.125 18.6607 23.2215 18.6607 18.4062C18.6607 13.5988 22.6261 9.6875 27.5 9.6875C32.3739 9.6875 36.3393 13.5988 36.3393 18.4062Z" fill="black"/>
</svg>
